<svg xmlns="http://www.w3.org/2000/svg" xmlns:xlink="http://www.w3.org/1999/xlink" viewBox="0 0 640 304">
  <g id="shadow_Image" data-name="shadow Image">
    <image id="shadow_Image-2" data-name="shadow Image" width="548" height="165" transform="translate(71 74)" xlink:href="sofaa1.png"/>
  </g>
  <g id="seat" class="g_to_interact_with" style="isolation: isolate">
    <path d="M395,148a109.22,109.22,0,0,0,26-3h29c29.92,0,55.26,3,77,11,9.15,3.36,25.7,7.16,29,13v22c-1.83,1.32-3.27,5.18-5,6H521c-5.84,3.63-22.86,1-31,1-22.46.11-48,1.11-72,1a15.61,15.61,0,0,1-1-5c-2.08.37-1.92.24-3,1-2.69,3.16-1.71,4-8,4-4.41,2.73-16.61,1-23,1H324c-17.92,0-39.59-.86-53,3-4.51,1.3-8.29-1.25-10-2l-28-1H129c-2.31-.93-1.6-2.48-6-3-.17-9.13-1.92-15.94-2-26,4.7-.42,11.44-7.95,18-12,8.83-5.45,21.18-8,32-11,16.9-4.71,38.49-3,59-3h21c3.79.86,12.22,3.65,16,3,3.55-.61,5.63-2.61,10-3v5a14.17,14.17,0,0,0,4,1c.95-.72,4.62-2.47,7-4-.15,3.92-2.25,2.59,2,4,6.09-4.71,19.55-4,30-4h43c8.72,1.93,22.2,3.63,29,3,.24-2.74.72-5.31,2-7v1C394.8,145.18,394.77,145.68,395,148Z"  fill-rule="evenodd"/>
  </g>
  <g id="bottom" class="g_to_interact_with" style="isolation: isolate">
    <path d="M417,194v4c12.61,4.19,48.86,1.07,65,1,5.16-3.16,41.88-2,50-2h15c4.69-2.38,7.49-7.18,14-8,2.14,2.62,5.5,3.71,10,4v3h2c1,.25.38.78,1,0,2.5-1.46,2.16-.59,3-4,1.79-2.81.13-7.86,1-12,3.36-15.92,1.06-46.92-2-62,7.16,0,7.93-1.93,13-3l-1,4c12.18,0,11.7,6.66,11,19-3.4,5.81-.33,15.52-2,23-2.83,12.67-2.23,28.47-5,41-3.62,16.35,3.66,26.32-17,26-3.42,2.13-8.69-.15-14,0-6.81.19-30.39,3.64-36,0,2.47-1.29.68.43,2-2H402c-3.11,2.11-16.22.08-24,0H316c-77.69-1.43-158.75-2-237-2v-1H78c-.26-12.28-1.49-29.65-4-41-1.29-5.85,0-14.38-1-19V140c-1.5-6.77-2.43-16.29-1-24,8.19-3.75,13.08-6,26-6v2c-5.37,4.83-3,22.24-3,32,0,18.45,4.55,44,16,52h12c6.3,4.72,16.69,4,28,4h58c16.85,0,39.53-2.38,52,3,1.73.74,31.16-3,39-3,37.12,0,76.5,0,112-1l2-5Z"  fill-rule="evenodd"/>
  </g>
  <g id="handle-right" class="g_to_interact_with" style="isolation: isolate">
    <path d="M507,101c12.27-.23,60.43,3.8,65,7,9.86,10.51,7.48,66.35,5,87-3.08.89-3,1.58-7,2-2.79,1.93-8,.69-11,0-2.06-8.12-3-16.1-3-28-6.34-2.78-11.55-7.73-19-11-12.71-5.58-30.34-8.06-44-11v-2c7.59-5.4,1.4-36.34,11-42C504.77,102.32,506.23,101.69,507,101Z"  fill-rule="evenodd"/>
  </g>
  <g id="handle-left" class="g_to_interact_with" style="isolation: isolate">
    <path d="M162,96c.8,9.48,5.65,8.89,8,14v8c.75,2.19,3.46,5.94,5,8,5.36,7.2,14.68,7.14,16,19-1.08.91-.08-.08-1,1-20.69-.38-40.28,7.4-54,15-5.07,2.81-11.36,10.32-14,10h-1v12c1.9,2.89,2,9.69,2,14-11.31-.24-21.88,0-30,3-.21,2.71-.67,8.07-2,10,.07-19.27-.36-39.1-4-56q.5-20,1-40h9c.9-4.7,2.64-8.7,6-11C111.44,96.55,147.94,95.39,162,96Z"  fill-rule="evenodd"/>
  </g>
  <g id="pillow-three" class="g_to_interact_with" style="isolation: isolate">
    <path d="M497,147c-19.06-.07-36.61-2-57-2H421a110.91,110.91,0,0,1-26,3c-.23-5.51-1.73-11-3-16q-1-20.5-2-41c-.11-2.4-2.05-4.74-2-5,.83-4.49,2.12-6.15,3-11l3-1c3.23-1.61,19.55,1.79,26,2,24.32.81,57.5-1.48,76,6,7.37,13,4.16,27.22,1,40Z" fill-rule="evenodd"/>
  </g>
  <g id="pillow-two" class="g_to_interact_with" style="isolation: isolate">
    <path d="M277,81c19-2.19,57.39,5.34,82,0,6-1.3,21.82-1.36,26,1,5.86,3.31,5.14,12.6,5,22,2.55,4.22-1.36,9.5-1,14,.68,8.41,2.1,18.67,2,28-4.15,1.46-3.57,3.35-9,4-4.68-3.26-12-.48-19-2-9-1.95-47.72-3.31-58-1-4.66,1.05-22,6-22,6-4.36-1-5.61-1.82-6-7,3.22-3,2-11.92,2-18C279,111,278.23,94.34,277,81Z"  fill-rule="evenodd"/>
  </g>
  <g id="pillow-one" class="g_to_interact_with" style="isolation: isolate">
    <path d="M162,96c-2.08-.37-1.92-.24-3-1,2.11-3.68-.53-7.28,2-11,1.38-4.57,4-6.85,10-7,3.82-1.73,12.93,3,21,3l59-1c7.78,0,22-2.06,25,3,2.56,3.51,1,10.85,1,18q-1,22.5-2,45c-3.2.94-3.5,1.74-8,2-3.22,1.61-12.9-1.53-18-2-18-1.66-42.75-2-59,1,2.91-10-7.93-12.84-13-18l-7-10v-8C167.59,104.8,163,105.51,162,96Z" fill-rule="evenodd"/>
  </g>
</svg>
