<svg xmlns="http://www.w3.org/2000/svg" xmlns:xlink="http://www.w3.org/1999/xlink" viewBox="0 0 548 165">
  <g id="seat" class="g_to_interact_with" style="isolation: isolate">
    <path d="M90,90c7.72-1.64,19.54-11.86,29-15,18.09-6,42-5,66-5,16,0,36.61-1.35,40,11h-1c-1,1,1,1,1,1,7.95-12.28,41.64-14.42,62-10l26,1c4.76,1.23,8.41,3.73,13,5,9.47-14.65,80.83-8,97-3l17,3c6.91,2.76,20.9,11.26,25,9,1.41,10.54.4,19.63-3,27-24.17,2.76-50.27,2-76,2-13.15,0-28.38,2.4-41,0-.14-3.76.47-3.52-2-5-6.59,11.31-49.1,6-68,6-19.54,0-43-.49-58,3-5.25,1.22-5.41-1.75-6-2-6.36-2.7-31,.73-39-1H93c-1.81-2.57-2.42-1.64-3-6C86.05,105.43,88.9,95.63,90,90Z"  fill-rule="evenodd"/>
  </g>
  <g id="side-right" class="g_to_interact_with" style="isolation: isolate">
    <path d="M420,32c21.26-.16,39.24,3.77,59,4,6.08,10.09,9.44,42.45,6,58-1.54,7,2.55,18.27-3,21H470c-.8-1.57-2.22-8.18-4-6-3.21-6.94,2.66-17.09-2-22-1.2,2.38-9-2.2-13-4-10.26-4.64-24.85-7.88-37-11V56C416.52,51.8,417.48,37.48,420,32Z"  fill-rule="evenodd"/>
  </g>
  <g id="side-left" class="g_to_interact_with" style="isolation: isolate">
    <path d="M123,27c.73,7,5,7.62,7,12,1.9,4.06,0,7.54,2,11,4.55,7.89,15,7.79,16,20a110.72,110.72,0,0,0-45,12c-4.63,2.44-7.3,6.71-13,8-1.31,7.48-1.14,14.8-1,24-11.23-.28-20.65.83-27,5v-7c-1.76-2.83-.11-7.85-1-12-3.42-15.86-2.09-38.1-2-57,.7-.25,5.94-.24,7-1,1.78-1.28,3.21-8.39,6-10,5.29-3.05,11.89-.14,19-2A98.07,98.07,0,0,1,123,27Z"  fill-rule="evenodd"/>
  </g>
  <g id="couch_one" class="g_to_interact_with" style="isolation: isolate">
    <path d="M141,13c.37-2.08.24-1.92,1-3a10.92,10.92,0,0,0,2,3c.37-2.08.24-1.92,1-3,.37,2.08.24,1.92,1,3,.83-3.25-.49-1.53,2-3,.37,2.08.24,1.92,1,3,.37-2.08.24-1.92,1-3,3.21,5.2,40.95,2.13,52,0l17,1a35.8,35.8,0,0,0,5,5c-2.93,16,.06,39.2-3,54-3,1-3,2-6,3-5.58-4.27-17.47-2.8-27-3-17.88-.37-36.44.81-54,1-3-4.89-5.9-5.68-6-14-3.83-4.91.18-12.84,1-19-3-1.85-8.78-5.23-11-8,3.62-.48,3.64-.26,5-3-1.24-1.84-1.09-5.7-1-9,2.39-1.56,2.92-2.92,6-4C132.76,10.65,136.57,12.05,141,13Z"  fill-rule="evenodd"/>
  </g>
  <g id="couch_two" class="g_to_interact_with" style="isolation: isolate">
    <path d="M322,18c.07,17,5.08,43.71,1,55h-1c-.37-2.08-.24-1.92-1-3-4.49,6.35-14.43,2-25,2-22.51-.07-45.06-1.19-64,3-.37-2.08-.24-1.92-1-3-2.27,3.19-2.44,2.6-7,3,.8-18.37.8-41.63,0-60,3.82-1.65,5.32-2.83,11-3,4.68,4.55,16.91,3,26,3l54-1C317.85,15,317.89,17.19,322,18Z"  fill-rule="evenodd"/>
  </g>
  <g id="couch_three" class="g_to_interact_with" style="isolation: isolate">
    <path d="M414,71l-52-1H343c-3.26.74-10.12,1.22-13,3l-4,5c-1.73.49-1.7-.93-2-1-2.39-.84-1.64-.4-3-2,6.1-5,1.25-42.58,1-57-2.08-.37-1.92-.24-3-1h-1V16c2.54-1.47,2-2.12,2-6l35-1c4.95,1.15,13.84-.43,20,1,10.53,2.45,25,2.84,36,3,3.18,4.64,5.11,5.21,5,14C420.28,33.56,414.15,56.45,414,71Z"  fill-rule="evenodd"/>
  </g>
  
  <g id="shadow_Image" data-name="shadow Image">
    <image id="shadow_Image-2" data-name="shadow Image" width="464" height="157" transform="translate(40 8)" xlink:href="sooffaa1.png"/>
  </g>
</svg>
